<svg width="23" height="23" viewBox="0 0 23 23" fill="none" xmlns="http://www.w3.org/2000/svg">
<path d="M1 10.3333C1 5.93383 1 3.7335 2.36733 2.36733C3.7335 1 5.93383 1 10.3333 1H12.6667C17.0662 1 19.2665 1 20.6327 2.36733C22 3.7335 22 5.93383 22 10.3333V12.6667C22 17.0662 22 19.2665 20.6327 20.6327C19.2665 22 17.0662 22 12.6667 22H10.3333C5.93383 22 3.7335 22 2.36733 20.6327C1 19.2665 1 17.0662 1 12.6667V10.3333Z" fill="white" stroke="white" stroke-width="1.46457"/>
<path d="M17.7677 6.25C17.7677 6.81207 17.3121 7.26772 16.75 7.26772C16.1879 7.26772 15.7323 6.81207 15.7323 6.25C15.7323 5.68793 16.1879 5.23228 16.75 5.23228C17.3121 5.23228 17.7677 5.68793 17.7677 6.25Z" fill="black" stroke="#FA6A00" stroke-width="1.46457"/>
<path d="M11.5 15C13.433 15 15 13.433 15 11.5C15 9.567 13.433 8 11.5 8C9.567 8 8 9.567 8 11.5C8 13.433 9.567 15 11.5 15Z" stroke="#FA6A00" stroke-width="1.46457"/>
</svg>
