<svg width="24" height="24" viewBox="0 0 24 24" fill="none" xmlns="http://www.w3.org/2000/svg">
<rect width="24" height="24" rx="12" fill="#FA6A00"/>
<path d="M11.6674 18.6485C11.7416 18.7598 11.8665 18.8267 12.0002 18.8267C12.1339 18.8267 12.2588 18.7598 12.333 18.6485C13.2797 17.2286 14.674 15.475 15.6456 13.6915C16.4225 12.2655 16.8002 11.0492 16.8002 9.97334C16.8002 7.32662 14.6469 5.17334 12.0002 5.17334C9.35348 5.17334 7.2002 7.32662 7.2002 9.97334C7.2002 11.0492 7.57788 12.2655 8.35478 13.6915C9.32569 15.4736 10.7227 17.2316 11.6674 18.6485ZM12.0002 5.97334C14.2058 5.97334 16.0002 7.76774 16.0002 9.97334C16.0002 10.9121 15.6544 12.0032 14.9431 13.3088C14.1056 14.8461 12.9104 16.4055 12.0002 17.7165C11.0901 16.4057 9.89486 14.8462 9.05729 13.3088C8.34598 12.0032 8.0002 10.9121 8.0002 9.97334C8.0002 7.76774 9.7946 5.97334 12.0002 5.97334Z" fill="white"/>
<path d="M12.0006 12.3732C13.3239 12.3732 14.4006 11.2966 14.4006 9.97324C14.4006 8.64988 13.3239 7.57324 12.0006 7.57324C10.6772 7.57324 9.60059 8.64988 9.60059 9.97324C9.60059 11.2966 10.6772 12.3732 12.0006 12.3732ZM12.0006 8.37324C12.8828 8.37324 13.6006 9.091 13.6006 9.97324C13.6006 10.8555 12.8828 11.5732 12.0006 11.5732C11.1183 11.5732 10.4006 10.8555 10.4006 9.97324C10.4006 9.091 11.1183 8.37324 12.0006 8.37324Z" fill="white"/>
</svg>
