<svg width="24" height="24" viewBox="0 0 24 24" fill="none" xmlns="http://www.w3.org/2000/svg">
<rect width="24" height="24" rx="12" fill="#FA6A00"/>
<path d="M17.4961 7H6.50391C6.10518 7.00041 5.72291 7.14912 5.44096 7.4135C5.15902 7.67789 5.00043 8.03636 5 8.41026V15.5897C5.00043 15.9636 5.15902 16.3221 5.44096 16.5865C5.72291 16.8509 6.10518 16.9996 6.50391 17H17.4961C17.8948 16.9996 18.2771 16.8509 18.559 16.5865C18.841 16.3221 18.9996 15.9636 19 15.5897V8.41026C18.9996 8.03636 18.841 7.67789 18.559 7.4135C18.2771 7.14912 17.8948 7.00041 17.4961 7ZM18.1797 8.41026V15.5897C18.1797 15.6209 18.1772 15.652 18.1723 15.6828L14.2288 12L18.1723 8.31718C18.1772 8.34799 18.1797 8.3791 18.1797 8.41026ZM17.4961 7.76923C17.5276 7.76933 17.559 7.77138 17.5902 7.77538L12 12.9956L6.40984 7.77538C6.44102 7.77138 6.47244 7.76933 6.50391 7.76923H17.4961ZM5.8277 15.6828C5.82275 15.652 5.82028 15.6209 5.82031 15.5897V8.41026C5.82028 8.3791 5.82275 8.34799 5.8277 8.31718L9.77121 12L5.8277 15.6828ZM6.50391 16.2308C6.47244 16.2307 6.44102 16.2286 6.40984 16.2246L10.3525 12.5428L11.7107 13.811C11.7876 13.8827 11.8916 13.923 12 13.923C12.1084 13.923 12.2124 13.8827 12.2893 13.811L13.6475 12.5428L17.5902 16.2246C17.559 16.2286 17.5276 16.2307 17.4961 16.2308H6.50391Z" fill="white"/>
</svg>
