<svg width="24" height="24" viewBox="0 0 24 24" fill="none" xmlns="http://www.w3.org/2000/svg">
<rect width="24" height="24" rx="12" fill="#FA6A00"/>
<path d="M18.5497 15.0772C18.5249 15.0567 15.7268 13.0659 14.9713 13.1877C14.6068 13.2521 14.3987 13.5008 13.981 13.9983C13.9138 14.0785 13.7519 14.2703 13.6268 14.4071C13.3628 14.3211 13.1053 14.2163 12.8563 14.0935C11.5709 13.4677 10.5323 12.4291 9.90653 11.1437C9.78374 10.8947 9.67894 10.6372 9.59293 10.3732C9.73013 10.2477 9.9224 10.0857 10.0045 10.0167C10.4997 9.60133 10.7479 9.39273 10.8123 9.0278C10.9444 8.27227 8.94333 5.47507 8.9228 5.44987C8.83167 5.32063 8.71298 5.21323 8.57531 5.13543C8.43763 5.05764 8.28439 5.01138 8.12667 5C7.3156 5 5 8.00347 5 8.5098C5 8.5392 5.04247 11.5277 8.72773 15.2765C12.4723 18.9575 15.4608 19 15.4902 19C15.9961 19 19 16.6844 19 15.8733C18.9885 15.7156 18.9421 15.5623 18.8643 15.4247C18.7864 15.287 18.6789 15.1683 18.5497 15.0772ZM15.4384 18.0639C15.0333 18.0293 12.5227 17.6985 9.38667 14.618C6.29127 11.4666 5.9688 8.95173 5.9366 8.56207C6.5483 7.60197 7.28704 6.72901 8.13273 5.96693C8.1514 5.9856 8.17613 6.0136 8.20787 6.05C8.85645 6.93537 9.41517 7.88319 9.87573 8.8794C9.72596 9.03007 9.56766 9.17202 9.4016 9.30453C9.14409 9.50074 8.90762 9.72313 8.696 9.96813C8.66019 10.0184 8.6347 10.0752 8.621 10.1354C8.60731 10.1955 8.60567 10.2578 8.6162 10.3186C8.71496 10.7464 8.86622 11.1604 9.06653 11.5511C9.78421 13.0248 10.9751 14.2155 12.4489 14.933C12.8396 15.1336 13.2535 15.285 13.6814 15.3838C13.7422 15.3946 13.8045 15.393 13.8647 15.3793C13.9249 15.3656 13.9817 15.34 14.0319 15.304C14.2777 15.0915 14.5009 14.8541 14.6978 14.5956C14.8443 14.4211 15.0399 14.1882 15.1141 14.1224C16.1128 14.5825 17.0627 15.1419 17.9495 15.7921C17.9883 15.8248 18.0158 15.85 18.034 15.8663C17.2719 16.7123 16.3988 17.4512 15.4384 18.0629V18.0639Z" fill="white"/>
<path d="M15 12H16C15.9988 10.9395 15.577 9.92278 14.8271 9.17289C14.0772 8.423 13.0605 8.00119 12 8V9C12.7954 9.00079 13.558 9.31712 14.1204 9.87956C14.6829 10.442 14.9992 11.2046 15 12Z" fill="white"/>
<path d="M17.9231 12H19C18.9979 10.1441 18.2597 8.36491 16.9474 7.05261C15.6351 5.74032 13.8559 5.00214 12 5V6.07692C13.5703 6.07878 15.0758 6.70341 16.1862 7.8138C17.2966 8.92419 17.9212 10.4297 17.9231 12Z" fill="white"/>
</svg>
