<svg width="24" height="24" viewBox="0 0 24 24" fill="none" xmlns="http://www.w3.org/2000/svg">
<rect width="24" height="24" rx="12" fill="#FA6A00"/>
<path d="M17.8837 15.0819C18.2353 15.0819 18.5203 14.7968 18.5203 14.4452C18.5203 14.0936 18.2353 13.8086 17.8837 13.8086C17.5321 13.8086 17.2471 14.0936 17.2471 14.4452C17.2471 14.7968 17.5321 15.0819 17.8837 15.0819Z" fill="white"/>
<path d="M16.496 17.1326C16.8476 17.1326 17.1326 16.8476 17.1326 16.496C17.1326 16.1444 16.8476 15.8594 16.496 15.8594C16.1444 15.8594 15.8594 16.1444 15.8594 16.496C15.8594 16.8476 16.1444 17.1326 16.496 17.1326Z" fill="white"/>
<path d="M18.3622 12.6395C18.7138 12.6395 18.9989 12.3545 18.9989 12.0028C18.9989 11.6512 18.7138 11.3662 18.3622 11.3662C18.0106 11.3662 17.7256 11.6512 17.7256 12.0028C17.7256 12.3545 18.0106 12.6395 18.3622 12.6395Z" fill="white"/>
<path d="M14.4345 18.5238C14.7861 18.5238 15.0711 18.2387 15.0711 17.8871C15.0711 17.5355 14.7861 17.2505 14.4345 17.2505C14.0829 17.2505 13.7979 17.5355 13.7979 17.8871C13.7979 18.2387 14.0829 18.5238 14.4345 18.5238Z" fill="white"/>
<path d="M11.9986 17.7298C11.0817 17.7309 10.1779 17.5119 9.36313 17.0913C8.54838 16.6706 7.84649 16.0606 7.31642 15.3124C6.78635 14.5642 6.44358 13.6997 6.31693 12.7915C6.19027 11.8834 6.28341 10.9581 6.58854 10.0934C6.89366 9.22874 7.40185 8.44992 8.07041 7.82239C8.73897 7.19485 9.54838 6.73694 10.4306 6.48711C11.3129 6.23729 12.2422 6.20285 13.1405 6.38669C14.0388 6.57053 14.8799 6.96728 15.5931 7.54361H14.5452C14.3763 7.54361 14.2144 7.61069 14.095 7.73008C13.9756 7.84947 13.9085 8.0114 13.9085 8.18025C13.9085 8.3491 13.9756 8.51103 14.095 8.63042C14.2144 8.74981 14.3763 8.81689 14.5452 8.81689H17.0917C17.2606 8.81689 17.4225 8.74981 17.5419 8.63042C17.6613 8.51103 17.7284 8.3491 17.7284 8.18025V5.63371C17.7284 5.46486 17.6613 5.30293 17.5419 5.18354C17.4225 5.06414 17.2606 4.99707 17.0917 4.99707C16.9229 4.99707 16.7609 5.06414 16.6415 5.18354C16.5222 5.30293 16.4551 5.46486 16.4551 5.63371V6.6084C15.5893 5.89266 14.5641 5.39578 13.4659 5.15973C12.3676 4.92368 11.2288 4.9554 10.1454 5.25221C9.06201 5.54902 8.06598 6.10219 7.24142 6.86501C6.41687 7.62783 5.788 8.57788 5.40794 9.63493C5.02789 10.692 4.9078 11.825 5.05784 12.9382C5.20787 14.0514 5.62361 15.1122 6.26995 16.0309C6.91628 16.9496 7.77423 17.6993 8.77131 18.2166C9.7684 18.7339 10.8753 19.0037 11.9986 19.0031C12.1675 19.0031 12.3294 18.936 12.4488 18.8166C12.5682 18.6972 12.6353 18.5353 12.6353 18.3664C12.6353 18.1976 12.5682 18.0356 12.4488 17.9163C12.3294 17.7969 12.1675 17.7298 11.9986 17.7298Z" fill="white"/>
<path d="M14.359 14.3604C14.4783 14.241 14.5453 14.0791 14.5453 13.9103C14.5453 13.7415 14.4783 13.5796 14.359 13.4602L12.6356 11.7368V8.18058C12.6356 8.01173 12.5685 7.8498 12.4491 7.73041C12.3297 7.61102 12.1678 7.54395 11.9989 7.54395C11.8301 7.54395 11.6682 7.61102 11.5488 7.73041C11.4294 7.8498 11.3623 8.01173 11.3623 8.18058V12.0004C11.3623 12.1692 11.4294 12.3311 11.5488 12.4505L13.4587 14.3604C13.5781 14.4798 13.74 14.5468 13.9088 14.5468C14.0777 14.5468 14.2396 14.4798 14.359 14.3604Z" fill="white"/>
</svg>
