<svg width="21" height="17" viewBox="0 0 21 17" fill="none" xmlns="http://www.w3.org/2000/svg">
<path fill-rule="evenodd" clip-rule="evenodd" d="M10.252 2.01378C9.40619 2.01378 8.5358 2.03593 7.68898 2.07017L6.68634 2.11749L5.72368 2.17287L4.81946 2.23328L3.9911 2.29672C3.55573 2.32706 3.14535 2.50781 2.83272 2.80694C2.52008 3.10606 2.32538 3.50425 2.28312 3.9309C2.16317 5.14823 2.0504 6.6636 2.0504 8.05513C2.0504 9.44665 2.16317 10.962 2.28312 12.1794C2.37026 13.0574 3.07969 13.74 3.9911 13.8135L4.81946 13.876L5.72368 13.9364L6.68634 13.9928L7.68898 14.0401C8.5358 14.0743 9.40619 14.0965 10.252 14.0965C11.0978 14.0965 11.9682 14.0743 12.815 14.0401L13.8176 13.9928L14.7803 13.9374L15.6845 13.877L16.5129 13.8135C16.9482 13.7832 17.3586 13.6024 17.6712 13.3033C17.9839 13.0042 18.1786 12.606 18.2208 12.1794C18.3408 10.962 18.4536 9.44665 18.4536 8.05513C18.4536 6.6636 18.3408 5.14823 18.2208 3.9309C18.1786 3.50425 17.9839 3.10606 17.6712 2.80694C17.3586 2.50781 16.9482 2.32706 16.5129 2.29672L15.6845 2.23429L14.7803 2.17388L13.8176 2.11749L12.815 2.07017C11.9611 2.03409 11.1066 2.01529 10.252 2.01378ZM8.2727 5.33104C8.22593 5.41807 8.20152 5.51501 8.20158 5.61342V10.4968L8.20773 10.5875C8.22264 10.6848 8.26157 10.7772 8.32112 10.8564C8.38066 10.9356 8.45903 10.9994 8.54939 11.042C8.63975 11.0847 8.73936 11.1051 8.83956 11.1013C8.93975 11.0975 9.03749 11.0698 9.12426 11.0204L13.4301 8.57871L13.5172 8.5183C13.5932 8.45593 13.6527 8.37649 13.6907 8.28671C13.7287 8.19694 13.744 8.09948 13.7355 8.00262C13.7269 7.90576 13.6947 7.81235 13.6415 7.73034C13.5884 7.64833 13.5158 7.58013 13.4301 7.53154L9.12426 5.09084L9.04122 5.05056C8.94793 5.01465 8.84713 5.00165 8.74756 5.01271C8.648 5.02377 8.55269 5.05856 8.46993 5.11403C8.38717 5.16951 8.31946 5.24401 8.2727 5.33104Z" fill="white"/>
<path fill-rule="evenodd" clip-rule="evenodd" d="M12.899 0.0583998C12.0276 0.0221517 11.1285 0 10.252 0C9.36897 0.00130421 8.48608 0.0207751 7.60389 0.0583998L6.57459 0.10673L5.58835 0.164123L4.66568 0.225544L3.82399 0.289985C2.90964 0.358959 2.04934 0.742352 1.39436 1.37274C0.73939 2.00312 0.331693 2.84013 0.242972 3.73657C0.228619 3.87552 0.215292 4.01749 0.201964 4.1645L0.125074 5.08077C0.0533103 6.03027 0 7.06535 0 8.05513C0.00496608 9.04774 0.046685 10.0398 0.125074 11.0295L0.201964 11.9458L0.242972 12.3737C0.331728 13.2703 0.739571 14.1074 1.39475 14.7378C2.04994 15.3682 2.91049 15.7515 3.82501 15.8203L4.66773 15.8837L5.5904 15.9461L6.57562 16.0035L7.60492 16.0519C8.48676 16.0895 9.36931 16.109 10.252 16.1103C11.1347 16.109 12.0172 16.0895 12.899 16.0519L13.9283 16.0035L14.9146 15.9461L15.8373 15.8837L16.6779 15.8203C17.5926 15.7517 18.4534 15.3686 19.1088 14.7381C19.7642 14.1077 20.1722 13.2704 20.261 12.3737C20.2753 12.2347 20.2887 12.0928 20.302 11.9458L20.3789 11.0295C20.4506 10.08 20.504 9.0449 20.504 8.05513C20.504 7.06535 20.4506 6.03027 20.3789 5.08077L20.302 4.1645L20.261 3.73657C20.1722 2.83998 19.7644 2.00284 19.1092 1.37243C18.454 0.742025 17.5935 0.358733 16.6789 0.289985L15.8362 0.225544L14.9136 0.164123L13.9283 0.10673L12.899 0.0583998ZM7.68898 2.07017C8.5358 2.03593 9.40619 2.01378 10.252 2.01378C11.1066 2.01529 11.9611 2.03409 12.815 2.07017L13.8176 2.11749L14.7803 2.17388L15.6845 2.23429L16.5129 2.29672C16.9482 2.32706 17.3586 2.50781 17.6712 2.80694C17.9839 3.10606 18.1786 3.50425 18.2208 3.9309C18.3408 5.14823 18.4536 6.6636 18.4536 8.05513C18.4536 9.44665 18.3408 10.962 18.2208 12.1794C18.1786 12.606 17.9839 13.0042 17.6712 13.3033C17.3586 13.6024 16.9482 13.7832 16.5129 13.8135L15.6845 13.877L14.7803 13.9374L13.8176 13.9928L12.815 14.0401C11.9682 14.0743 11.0978 14.0965 10.252 14.0965C9.40619 14.0965 8.5358 14.0743 7.68898 14.0401L6.68634 13.9928L5.72368 13.9364L4.81946 13.876L3.9911 13.8135C3.07969 13.74 2.37026 13.0574 2.28312 12.1794C2.16317 10.962 2.0504 9.44665 2.0504 8.05513C2.0504 6.6636 2.16317 5.14823 2.28312 3.9309C2.32538 3.50425 2.52008 3.10606 2.83272 2.80694C3.14535 2.50781 3.55573 2.32706 3.9911 2.29672L4.81946 2.23328L5.72368 2.17287L6.68634 2.11749L7.68898 2.07017Z" fill="white"/>
</svg>
